<?xml version="1.0" encoding="UTF-8"?>
<svg id="_레이어_2" data-name="레이어 2" xmlns="http://www.w3.org/2000/svg" viewBox="0 0 474.01 891.83">
  <g id="_레이어_1-2" data-name="레이어 1">
    <path d="M293.5,0v213.33h180.5v104.29h-180.5v323.24c0,34.22,2.32,56.09,4.77,66.22,2.3,9.52,7.91,17.95,13.92,25.42,10.66,13.43,30,19.91,46.81,21.61,35.19,2.74,57.51-4.78,88.57-19.48l26.43,123.53c-24.17,10.09-47.7,21.17-73.07,27.2-31.3,6.56-66.35,7.9-98.43,5.09-37.68-5.11-73.96-14.5-107.76-37.96-34.79-24.15-62.03-64.14-69.17-105.62-10.39-60.4-8.63-96.82-9.08-151.52v-277.72H0v-104.72c70.73-3.59,114.21-36.48,147.42-82.57C176.75,89.6,183.08,60.82,190.59,0h102.91Z"/>
  </g>
</svg>